<?xml version="1.0" standalone="no"?><!DOCTYPE svg PUBLIC "-//W3C//DTD SVG 20010904//EN" "http://www.w3.org/TR/2001/REC-SVG-20010904/DTD/svg10.dtd"><svg xmlns="http://www.w3.org/2000/svg" version="1.0" width="1024.000000pt" height="876.000000pt" viewBox="0 0 1024.000000 876.000000" preserveAspectRatio="xMidYMid meet">

<g transform="translate(0.000000,876.000000) scale(0.100000,-0.100000)" fill="black" stroke="none">
<path d="M3450 8733 c-19 -13 -39 -32 -44 -41 -5 -9 -16 -23 -24 -30 -23 -18 -24 -162 -1 -188 9 -11 20 -35 24 -54 4 -19 16 -51 26 -70 11 -19 19 -43 19 -54 0 -10 9 -33 19 -50 10 -17 22 -47 26 -66 4 -19 14 -42 22 -51 7 -9 17 -34 20 -55 3 -22 14 -48 24 -59 9 -11 20 -37 24 -57 4 -21 13 -42 20 -48 8 -6 17 -26 21 -43 3 -18 15 -44 25 -59 11 -14 19 -33 19 -41 0 -8 9 -25 19 -39 11 -13 22 -41 26 -61 4 -20 13 -41 21 -48 7 -6 16 -26 20 -44 3 -19 15 -41 25 -51 10 -9 19 -26 19 -37 0 -26 86 -202 117 -240 13 -16 23 -33 23 -39 0 -6 14 -32 32 -59 24 -38 37 -49 58 -49 14 0 31 5 38 12 18 18 14 124 -7 203 -10 39 -21 100 -24 137 -4 37 -13 81 -22 97 -8 17 -15 56 -15 88 0 36 -8 74 -20 100 -10 24 -22 71 -26 105 -3 35 -14 81 -25 103 -10 22 -21 61 -24 87 -3 26 -10 50 -15 53 -5 3 -14 31 -20 63 -6 31 -18 74 -26 95 -7 20 -17 61 -20 90 -3 28 -15 66 -25 83 -10 17 -19 47 -19 66 0 20 -9 46 -19 60 -11 13 -22 40 -26 60 -8 41 -22 63 -79 119 -37 38 -41 39 -105 38 -53 -1 -73 -5 -101 -26z"/>
<path d="M6768 8660 c-7 -11 -18 -20 -25 -20 -15 0 -73 -79 -73 -100 0 -8 -11 -35 -24 -60 -13 -25 -27 -61 -31 -80 -4 -19 -15 -48 -25 -65 -10 -16 -21 -52 -25 -80 -4 -27 -15 -63 -25 -80 -10 -16 -21 -46 -25 -65 -4 -19 -18 -63 -31 -97 -13 -34 -24 -73 -24 -87 0 -14 -9 -40 -19 -58 -11 -18 -23 -58 -26 -88 -4 -30 -16 -68 -27 -84 -13 -18 -23 -55 -29 -103 -5 -43 -16 -88 -28 -106 -10 -18 -22 -61 -26 -97 -4 -35 -16 -90 -26 -121 -10 -31 -22 -88 -25 -127 -8 -82 2 -102 47 -102 22 0 32 7 44 30 9 17 19 30 24 30 5 0 14 14 20 31 6 17 22 44 36 61 14 16 25 35 25 43 0 7 7 19 16 26 9 8 25 32 36 54 10 22 25 51 33 65 8 14 15 32 15 41 0 9 9 24 20 34 11 10 22 33 26 51 3 18 15 40 25 50 10 9 19 27 19 39 0 11 11 36 25 55 14 19 25 41 25 50 0 9 11 27 25 40 14 13 25 33 25 45 0 12 8 33 19 46 10 13 23 40 30 61 7 20 18 39 26 42 8 3 17 22 21 43 4 21 18 58 31 82 12 24 23 52 23 61 0 9 9 25 19 34 11 10 23 31 26 47 4 15 14 38 24 51 10 13 22 42 26 65 3 23 15 53 25 65 24 31 37 147 20 179 -7 12 -33 44 -58 71 l-45 48 -73 0 c-63 0 -76 -3 -86 -20z"/>
<path d="M5070 8019 c-34 -23 -67 -53 -73 -68 -18 -41 -11 -471 9 -541 9 -29 20 -101 24 -160 5 -58 16 -136 24 -175 9 -38 16 -85 16 -103 0 -42 34 -118 59 -131 39 -21 80 2 81 44 0 11 7 34 16 50 9 17 24 73 34 125 10 52 25 129 34 170 9 41 16 93 16 116 0 22 9 74 19 115 26 101 41 232 41 365 0 104 -2 113 -25 140 -14 16 -25 32 -25 36 0 4 -12 11 -27 15 -16 3 -41 15 -58 25 -49 30 -95 23 -165 -23z"/>
<path d="M3121 7683 c-30 -26 -43 -105 -25 -157 8 -22 20 -47 28 -56 7 -8 27 -44 45 -79 18 -35 37 -69 42 -75 4 -6 22 -27 39 -47 16 -20 30 -45 30 -56 0 -11 9 -28 20 -38 11 -10 20 -23 20 -30 0 -6 11 -22 25 -35 14 -13 25 -28 25 -34 0 -10 43 -77 70 -107 8 -10 30 -36 49 -58 29 -33 38 -38 54 -29 17 9 18 17 12 61 -3 29 -12 59 -19 67 -8 8 -16 34 -19 57 -3 23 -14 54 -26 69 -12 15 -21 41 -21 61 0 19 -9 51 -20 71 -32 62 -70 150 -70 165 0 8 -9 26 -20 40 -11 14 -23 40 -27 59 -3 18 -14 44 -25 57 -10 13 -18 32 -18 43 0 10 -11 30 -25 43 -30 31 -110 35 -144 8z"/>
<path d="M4457 7606 c-36 -33 -37 -36 -37 -103 0 -48 5 -76 17 -93 9 -13 20 -51 24 -83 4 -32 14 -66 23 -76 9 -10 21 -43 26 -74 5 -31 15 -66 23 -79 8 -13 18 -39 22 -58 4 -19 13 -42 20 -50 7 -8 16 -31 20 -50 4 -19 16 -49 26 -66 10 -17 19 -38 19 -45 1 -25 57 -82 74 -76 24 9 22 162 -4 262 -13 50 -20 111 -20 169 0 66 -6 108 -20 149 -11 31 -20 79 -20 106 0 34 -8 66 -27 103 -54 103 -103 122 -166 64z"/>
<path d="M5792 7598 c-40 -20 -90 -117 -102 -197 -5 -39 -17 -83 -26 -96 -10 -16 -18 -63 -24 -142 -5 -70 -15 -136 -25 -158 -9 -22 -20 -83 -25 -135 -13 -127 -12 -130 6 -137 19 -7 84 53 84 78 0 9 9 27 19 40 10 14 25 43 32 67 7 23 18 47 26 53 7 6 13 19 13 28 0 9 14 43 30 76 16 33 30 72 30 86 0 15 9 38 21 52 11 15 24 49 28 76 4 27 16 62 26 78 14 21 19 47 19 103 1 74 0 76 -34 108 -37 33 -60 38 -98 20z"/>
<path d="M7103 7595 c-24 -10 -33 -22 -38 -49 -4 -19 -15 -42 -26 -52 -10 -9 -21 -32 -25 -50 -3 -18 -14 -40 -24 -49 -11 -10 -22 -30 -25 -46 -4 -16 -26 -67 -50 -114 -23 -47 -46 -100 -49 -118 -3 -19 -17 -49 -31 -67 -15 -20 -25 -47 -25 -67 0 -19 -9 -46 -21 -62 -28 -38 -36 -103 -15 -120 14 -12 24 -6 76 50 33 35 60 69 60 75 0 7 4 14 8 16 4 2 29 30 55 63 26 33 52 66 58 73 5 7 15 26 21 42 5 16 30 51 54 77 24 27 44 53 44 60 0 6 11 25 25 41 13 16 29 40 35 53 5 13 20 36 32 51 17 22 21 39 20 88 -1 34 -7 70 -12 81 -21 38 -89 50 -147 24z"/>
<path d="M2475 7345 c-92 -74 -100 -102 -60 -210 15 -42 33 -79 40 -83 7 -4 27 -34 46 -67 18 -33 36 -62 39 -65 4 -3 13 -16 20 -30 7 -13 30 -43 52 -65 53 -56 103 -119 145 -184 20 -31 48 -68 62 -82 14 -14 76 -79 136 -144 177 -191 181 -195 207 -195 36 0 48 18 48 71 0 36 -6 55 -25 77 -14 17 -25 41 -25 55 0 13 -7 30 -15 37 -8 7 -20 30 -25 51 -6 22 -15 39 -20 39 -5 0 -15 20 -21 44 -6 25 -20 52 -30 62 -10 9 -19 29 -19 44 0 15 -8 35 -19 44 -10 9 -22 31 -25 48 -3 18 -13 40 -22 49 -18 20 -37 53 -89 159 -21 41 -46 81 -56 88 -11 8 -19 25 -19 41 0 15 -9 36 -20 46 -11 10 -20 24 -20 30 0 7 -23 34 -51 61 -29 27 -64 61 -79 77 -38 37 -111 38 -155 2z"/>
<path d="M7712 7215 c-12 -14 -28 -25 -36 -25 -25 0 -156 -159 -156 -190 0 -9 -11 -26 -25 -38 -14 -12 -25 -26 -25 -31 0 -5 -18 -38 -40 -72 -22 -35 -45 -75 -50 -88 -6 -14 -19 -31 -29 -38 -10 -7 -21 -27 -25 -46 -3 -18 -15 -40 -26 -50 -11 -9 -20 -28 -20 -42 0 -14 -11 -34 -25 -47 -14 -12 -25 -32 -25 -44 0 -12 -11 -35 -24 -51 -13 -15 -27 -39 -31 -53 -4 -14 -16 -36 -26 -49 -11 -13 -19 -29 -19 -37 0 -7 -11 -26 -26 -43 -22 -26 -25 -38 -22 -88 3 -55 4 -58 31 -61 28 -3 107 40 107 59 0 4 30 36 66 71 104 99 227 224 247 250 37 50 132 163 139 166 17 8 88 85 93 103 4 10 10 19 15 19 5 0 12 9 15 21 4 11 26 44 49 72 73 90 96 139 96 200 0 53 -2 57 -52 106 -49 48 -55 51 -103 51 -42 0 -55 -4 -73 -25z"/>
<path d="M450 6786 c-74 -28 -86 -35 -111 -62 -40 -44 -44 -67 -16 -111 31 -49 175 -183 197 -183 9 0 24 -8 34 -18 9 -11 34 -24 55 -31 21 -6 44 -18 51 -26 7 -8 18 -15 25 -15 7 0 28 -11 48 -24 19 -13 48 -27 65 -31 16 -3 38 -15 48 -26 9 -10 27 -19 40 -19 12 0 35 -11 51 -24 15 -13 45 -26 66 -30 21 -4 54 -18 74 -32 20 -13 42 -24 49 -24 7 0 34 -11 60 -25 26 -14 52 -25 59 -25 7 0 22 -9 35 -20 13 -11 31 -20 40 -20 10 0 29 -9 43 -20 14 -11 45 -27 68 -35 24 -9 50 -22 59 -29 8 -7 32 -16 54 -19 21 -4 47 -15 57 -25 9 -11 34 -23 55 -27 21 -3 49 -15 61 -25 13 -10 38 -22 56 -26 18 -3 45 -16 61 -27 23 -16 45 -21 100 -21 71 -1 71 -1 74 28 4 32 -25 69 -73 93 -16 8 -42 27 -56 42 -14 14 -52 44 -84 66 -32 22 -72 52 -89 66 -17 14 -44 33 -61 42 -16 8 -50 32 -75 53 -25 22 -62 48 -83 58 -21 11 -54 34 -73 50 -69 62 -87 76 -101 76 -7 0 -23 11 -35 25 -12 14 -26 25 -31 25 -13 0 -110 65 -126 84 -8 9 -17 16 -22 16 -11 0 -116 67 -123 79 -4 5 -20 12 -36 16 -17 4 -30 10 -30 15 0 16 -31 40 -52 40 -11 0 -33 11 -50 25 -16 14 -38 25 -47 25 -10 0 -29 8 -42 18 -24 19 -136 56 -199 66 -19 3 -51 0 -70 -8z"/>
<path d="M1755 6694 c-45 -17 -55 -28 -55 -68 0 -22 13 -41 56 -82 108 -101 147 -128 282 -193 23 -11 42 -25 42 -31 0 -6 19 -20 43 -30 23 -11 60 -31 82 -45 22 -14 56 -33 75 -41 19 -9 39 -23 46 -32 13 -18 112 -28 133 -13 17 11 -28 62 -178 206 -46 44 -126 122 -177 173 -52 50 -100 92 -108 92 -7 0 -26 10 -41 22 -29 23 -118 58 -145 57 -8 0 -33 -7 -55 -15z"/>
<path d="M4645 6576 c-248 -35 -364 -62 -580 -136 -195 -67 -331 -126 -460 -200 -38 -22 -88 -49 -110 -61 -115 -63 -369 -249 -494 -363 -202 -183 -398 -419 -528 -637 -150 -250 -262 -520 -328 -789 -55 -223 -93 -591 -69 -654 6 -14 78 -16 720 -16 655 0 714 -1 714 -16 0 -9 -25 -45 -55 -79 -30 -35 -55 -66 -55 -69 0 -4 -10 -17 -22 -30 -13 -13 -30 -33 -38 -45 -17 -24 -131 -121 -225 -191 -34 -25 -83 -66 -109 -90 -88 -83 -66 -79 -470 -80 -427 0 -405 6 -376 -99 57 -203 193 -509 315 -707 227 -366 553 -700 905 -925 323 -207 699 -359 1070 -433 237 -47 287 -51 605 -51 337 0 407 7 685 67 658 141 1245 497 1687 1023 142 168 357 505 336 526 -10 10 -29 5 -163 -46 -188 -72 -296 -104 -394 -117 -95 -13 -398 -16 -439 -5 -19 5 -26 4 -22 -2 3 -6 22 -13 43 -17 20 -3 59 -12 86 -20 63 -18 215 -18 286 0 30 7 82 19 115 26 33 7 105 23 160 37 174 43 186 45 201 39 28 -11 -3 -42 -53 -56 -26 -7 -93 -30 -148 -50 -122 -46 -312 -90 -389 -90 -70 0 -211 23 -336 54 -188 46 -351 149 -427 268 -55 87 -81 139 -89 185 l-7 38 27 -24 c14 -14 26 -29 26 -34 0 -14 70 -96 150 -173 48 -47 100 -86 145 -108 65 -33 165 -69 172 -62 2 2 -30 20 -71 41 -67 34 -194 135 -248 197 -36 42 -84 158 -93 229 -8 54 6 73 65 89 48 13 54 28 23 58 -27 25 -27 55 0 60 23 5 47 -15 47 -40 0 -10 6 -20 13 -22 6 -2 35 -11 64 -20 40 -14 56 -15 72 -6 28 14 26 21 -12 45 -39 25 -48 60 -17 70 15 5 29 0 44 -14 26 -25 44 -26 71 -5 18 13 88 14 595 9 316 -3 590 -6 608 -6 28 1 32 -2 32 -24 0 -14 -18 -79 -41 -143 -22 -64 -41 -124 -42 -132 -3 -24 49 -25 62 -1 19 34 111 312 111 334 0 3 -7 13 -16 21 -14 14 -82 16 -599 16 -328 0 -586 4 -589 9 -3 5 -1 23 5 41 18 50 0 59 -58 28 -43 -23 -52 -25 -83 -15 -24 8 -36 19 -38 35 -3 23 21 32 33 12 16 -25 41 -7 67 48 39 83 42 101 23 108 -9 4 -26 2 -38 -4 -45 -21 -71 -21 -128 4 -36 15 -78 24 -109 24 -48 0 -50 1 -50 28 0 16 -6 37 -14 47 -13 18 -15 18 -50 -9 -21 -15 -71 -39 -112 -52 -128 -42 -187 -80 -311 -198 l-116 -111 -586 -1 c-322 -1 -594 0 -603 3 -19 5 -95 115 -124 178 -15 34 -18 65 -16 209 1 93 4 178 8 188 9 31 40 35 236 34 l187 -1 28 -26 c39 -37 66 -49 108 -49 38 0 57 22 36 43 -6 6 -11 15 -11 19 0 4 65 8 145 8 143 0 145 0 161 -25 9 -14 23 -25 30 -25 8 0 20 11 26 25 l11 25 1309 0 1308 0 9 24 c9 23 8 58 -9 266 -62 723 -449 1434 -1040 1909 -291 234 -608 410 -930 518 -139 46 -302 92 -370 103 -30 5 -111 19 -180 31 -104 17 -177 22 -425 25 -273 3 -315 1 -470 -20z m800 -62 c645 -84 1216 -348 1666 -770 406 -381 636 -759 799 -1309 50 -171 108 -623 81 -639 -6 -4 -2166 -9 -2311 -6 -22 1 -29 4 -19 8 31 14 118 87 125 105 9 26 -1 31 -37 18 -28 -10 -38 -8 -76 14 -43 26 -73 68 -73 103 0 26 42 70 76 78 33 8 57 -5 64 -37 6 -23 10 -24 76 -22 38 1 76 2 84 3 29 0 100 54 115 87 22 45 13 55 -44 47 -57 -7 -75 9 -74 64 1 46 31 72 83 72 100 0 90 48 -16 80 -57 17 -106 1 -194 -65 -78 -58 -116 -71 -183 -62 -72 10 -115 83 -57 97 29 7 36 29 22 70 -8 21 -7 41 3 74 17 57 5 109 -32 133 -25 17 -26 16 -59 -19 -45 -50 -69 -61 -113 -53 -39 7 -81 40 -81 63 0 8 8 27 18 44 17 29 17 30 -6 46 -13 10 -35 29 -49 45 -29 30 -54 35 -72 13 -24 -28 -121 -65 -198 -75 -125 -16 -221 -45 -327 -100 -145 -75 -191 -78 -191 -13 0 27 -30 44 -44 25 -3 -5 -35 -29 -71 -55 -36 -25 -94 -77 -128 -114 -35 -38 -101 -109 -145 -158 -45 -49 -136 -143 -202 -210 -140 -143 -176 -182 -230 -253 -21 -29 -44 -53 -50 -53 -5 -1 -327 0 -715 0 -511 1 -706 4 -711 12 -7 12 -7 28 11 230 19 216 98 538 175 713 7 17 31 71 53 120 205 467 642 954 1106 1234 334 201 681 328 1083 396 83 14 205 30 270 35 150 11 455 3 598 -16z m-305 -1804 c0 -5 -5 -10 -11 -10 -13 0 -79 -53 -79 -64 0 -15 57 2 106 34 56 35 72 28 54 -25 -13 -38 -83 -99 -130 -112 -33 -9 -90 -43 -90 -54 0 -14 54 -10 96 7 26 11 77 18 154 20 136 5 187 21 225 70 28 37 65 46 65 15 0 -26 -32 -64 -74 -86 -54 -29 -54 -45 -1 -45 25 0 45 -4 45 -8 0 -12 -115 -59 -162 -68 -42 -7 -53 -34 -14 -34 37 0 87 -20 149 -61 115 -76 175 -75 289 5 74 51 128 80 135 72 3 -3 -24 -35 -61 -70 -36 -35 -66 -67 -66 -69 0 -3 13 -8 29 -12 16 -3 50 -19 75 -36 26 -16 53 -29 61 -29 22 0 18 -28 -4 -40 -11 -5 -45 -12 -75 -15 -50 -4 -57 -2 -75 21 -11 14 -21 30 -23 36 -4 10 -116 13 -163 3 -11 -2 -48 -4 -82 -4 -50 -1 -63 -4 -63 -16 0 -9 10 -19 23 -24 32 -13 67 -53 102 -119 27 -51 44 -67 111 -108 50 -31 -41 -75 -148 -72 -56 2 -72 -1 -97 -20 -17 -12 -33 -22 -36 -22 -10 0 -5 48 10 83 34 83 9 160 -70 214 -74 52 -129 38 -70 -17 31 -29 32 -52 3 -90 -29 -39 -43 -38 -65 8 -23 48 -128 119 -190 128 -24 3 -47 4 -50 1 -3 -4 8 -22 26 -42 38 -44 40 -83 6 -133 -32 -47 -34 -125 -5 -182 25 -49 25 -52 -2 -48 -28 4 -65 67 -74 128 -12 77 -51 173 -84 203 -42 38 -53 35 -45 -13 6 -34 3 -45 -19 -71 -14 -17 -26 -41 -26 -55 0 -26 -21 -32 -38 -11 -6 6 -13 28 -17 48 -14 75 -90 117 -192 105 -88 -10 -207 -101 -125 -96 84 6 102 -9 102 -85 0 -29 -3 -60 -6 -69 -9 -23 -37 -19 -64 9 -38 41 -81 42 -155 6 -74 -36 -168 -107 -163 -123 2 -5 27 -11 55 -12 37 -1 60 -8 80 -24 53 -42 108 -76 153 -93 31 -12 45 -23 45 -35 0 -14 -12 -22 -45 -31 -66 -17 -107 -16 -180 6 -94 28 -224 50 -234 40 -5 -4 -3 -18 6 -31 9 -13 19 -42 22 -65 4 -22 18 -55 31 -73 42 -56 5 -82 -81 -58 -45 13 -49 16 -55 51 -3 21 -19 54 -36 75 -26 32 -36 37 -78 40 -63 4 -79 -11 -41 -41 21 -17 27 -29 24 -52 -3 -33 2 -32 -109 -19 -31 4 -56 1 -76 -9 -40 -21 -159 -134 -150 -143 4 -4 36 -6 72 -5 61 2 69 0 113 -32 52 -39 143 -77 182 -77 63 -1 65 -42 3 -59 -60 -17 -89 -13 -124 17 -28 23 -41 27 -92 26 -69 -1 -86 -13 -62 -41 9 -11 27 -46 41 -79 15 -39 37 -71 65 -95 l41 -36 -22 -21 c-51 -47 -165 -29 -252 41 -33 26 -38 36 -38 72 0 106 -168 157 -239 72 -9 -12 -7 -19 16 -35 25 -18 28 -28 30 -79 1 -32 4 -69 5 -82 3 -22 -2 -25 -86 -42 -49 -10 -124 -29 -165 -43 -141 -45 -174 -44 -108 4 17 13 48 38 67 56 19 17 49 43 65 57 17 14 28 28 25 31 -5 4 -48 -21 -210 -127 -35 -23 -96 -58 -135 -78 -38 -20 -98 -51 -132 -69 -66 -35 -85 -33 -96 10 -6 23 21 45 148 120 233 137 515 339 695 499 25 22 65 57 90 78 25 21 51 46 58 55 7 10 47 53 90 96 102 104 132 139 132 154 0 7 -44 -33 -98 -89 -102 -106 -322 -308 -407 -373 -27 -21 -70 -57 -94 -79 -24 -23 -45 -41 -48 -41 -7 0 -68 -45 -71 -52 -2 -5 -9 -8 -16 -8 -6 0 -27 -11 -46 -24 -106 -71 -448 -249 -466 -242 -35 13 -9 49 66 93 41 24 82 52 90 62 8 9 36 29 61 44 25 15 54 36 64 47 10 11 23 20 30 20 25 0 296 187 403 279 26 22 88 74 138 115 101 83 171 156 281 291 40 50 118 140 173 200 55 61 146 161 202 224 264 296 480 506 520 506 30 0 19 -46 -26 -101 -47 -57 -53 -69 -37 -78 8 -5 60 31 81 54 3 3 23 17 45 30 22 13 52 33 66 45 14 12 83 49 152 83 101 50 141 64 204 73 95 13 213 38 233 50 20 12 40 11 40 -1z m52 -776 c25 -50 53 -75 74 -67 8 3 24 23 36 44 24 43 51 51 68 20 13 -25 13 -78 0 -86 -5 -3 -10 -15 -10 -25 0 -11 -9 -24 -19 -30 -21 -10 -270 -14 -307 -4 -75 20 15 194 100 194 31 0 37 -5 58 -46z m-568 -16 c14 -6 28 -19 31 -29 8 -26 56 -70 88 -81 54 -20 25 -28 -98 -28 -124 0 -125 0 -131 25 -7 30 36 111 63 118 10 3 19 5 20 6 1 0 13 -4 27 -11z m246 -33 c26 -42 24 -98 -3 -103 -40 -8 -63 7 -77 48 -12 38 -12 42 10 65 31 33 44 32 70 -10z m1434 -511 c-16 -13 -50 -38 -76 -55 -45 -29 -63 -59 -35 -59 6 0 30 12 52 25 22 14 47 25 56 25 9 0 36 9 60 20 53 24 133 26 209 5 32 -9 71 -13 93 -9 29 5 37 3 37 -10 0 -28 -44 -48 -92 -41 -51 7 -102 -6 -106 -27 -3 -17 85 -79 138 -96 19 -7 48 -11 64 -9 16 1 30 -2 32 -8 5 -12 -76 -65 -98 -65 -8 0 -36 16 -61 35 -68 52 -78 48 -70 -25 4 -40 2 -64 -6 -74 -17 -20 -41 -9 -41 20 0 24 -49 87 -81 104 -28 15 -137 22 -144 9 -4 -6 2 -20 12 -32 11 -12 25 -42 32 -67 7 -25 22 -55 33 -67 13 -14 17 -26 11 -36 -13 -22 -111 18 -119 48 -17 67 -114 94 -197 55 -26 -12 -47 -25 -47 -29 0 -5 11 -13 24 -19 17 -7 29 -25 36 -52 6 -24 29 -61 52 -86 38 -41 40 -46 25 -61 -15 -15 -21 -14 -74 10 -52 23 -59 30 -64 62 -8 46 -34 66 -84 62 -31 -1 -41 -6 -43 -22 -8 -40 -31 -55 -77 -48 -68 9 -170 -44 -120 -63 8 -3 30 -32 50 -63 19 -32 46 -63 60 -69 59 -27 6 -82 -80 -82 -25 0 -62 8 -83 19 -20 10 -49 21 -64 25 -16 4 -34 18 -43 36 -10 20 -28 33 -53 41 -34 10 -45 8 -105 -17 -37 -16 -67 -32 -67 -36 0 -4 11 -24 25 -44 14 -20 25 -42 25 -49 0 -14 69 -80 90 -87 22 -7 3 -38 -23 -38 -13 0 -34 11 -47 24 -12 14 -36 28 -52 31 -23 5 -34 17 -48 50 -23 53 -43 65 -111 65 -85 0 -157 25 -328 115 -95 50 -179 113 -259 194 -120 122 -159 180 -201 301 -24 66 -24 70 -7 70 9 0 16 -4 16 -9 0 -11 133 -189 191 -256 53 -60 136 -130 193 -160 22 -12 68 -39 101 -59 33 -20 67 -36 75 -36 9 0 26 -7 38 -16 51 -35 222 -62 222 -34 0 6 -18 10 -41 10 -105 0 -385 150 -509 272 -102 101 -226 306 -200 332 8 8 13 8 18 0 4 -5 36 -53 71 -105 35 -51 75 -107 90 -122 30 -33 191 -150 197 -144 6 5 -76 77 -87 77 -5 0 -9 7 -9 15 0 13 64 15 520 15 392 0 520 -3 520 -12 0 -6 -15 -24 -32 -39 -36 -30 -33 -48 4 -28 41 21 150 114 258 221 112 109 187 156 316 197 67 21 82 11 38 -25z m-2044 -181 c72 -140 221 -315 330 -388 25 -16 71 -49 103 -73 61 -47 175 -103 245 -121 44 -12 54 -27 26 -38 -51 -19 -301 60 -400 126 -49 34 -67 27 -26 -10 43 -39 83 -64 168 -107 159 -80 255 -113 420 -147 79 -16 81 -17 89 -68 4 -23 23 -80 41 -126 49 -120 47 -126 -30 -91 -52 23 -95 70 -120 130 -35 86 -25 78 -146 110 -120 31 -161 47 -278 107 -106 54 -174 97 -216 136 -13 12 -42 37 -65 55 -69 56 -148 163 -217 297 -84 162 -99 204 -78 212 17 6 54 -23 54 -44 0 -41 198 -296 295 -381 48 -42 61 -32 14 11 -83 76 -215 277 -248 377 -25 77 -26 80 -3 80 10 0 26 -18 42 -47z m-219 -50 c19 -30 46 -70 60 -87 58 -69 223 -373 235 -434 10 -49 -15 -41 -72 22 -65 72 -68 76 -90 122 -10 21 -43 84 -74 139 -114 203 -155 318 -106 299 7 -3 28 -30 47 -61z m-1271 -96 c0 -11 -83 -78 -139 -112 -9 -5 -40 -25 -69 -43 -77 -49 -221 -114 -245 -110 -22 3 -39 45 -78 187 -17 61 -19 75 -7 82 7 5 131 9 276 9 209 0 262 -3 262 -13z m1231 -79 c31 -33 87 -154 98 -212 11 -57 0 -99 -24 -90 -24 10 -91 144 -110 221 -23 99 -10 129 36 81z m-318 -6 c24 -27 31 -73 14 -97 -13 -17 -18 -18 -40 -6 -28 15 -34 36 -28 89 4 37 28 43 54 14z m182 -22 c38 -38 39 -42 43 -125 4 -73 2 -86 -13 -91 -31 -12 -45 10 -97 163 -33 100 -3 125 67 53z m-135 -234 c125 -18 252 -50 490 -124 163 -51 156 -48 425 -184 39 -20 169 -84 290 -143 121 -59 232 -116 246 -126 14 -10 48 -27 76 -38 97 -38 233 -136 233 -168 0 -9 -8 -12 -22 -8 -13 3 -52 11 -88 19 -66 15 -223 67 -257 85 -10 5 -56 27 -103 47 -47 21 -116 58 -155 81 -61 38 -136 76 -250 128 -16 7 -60 27 -98 44 -37 17 -72 31 -77 31 -6 0 -34 12 -63 27 -29 14 -65 30 -82 34 -16 4 -61 19 -100 32 -384 133 -482 151 -820 151 -191 0 -241 -3 -295 -18 -54 -15 -343 -124 -415 -156 -120 -54 -195 -54 -195 1 0 28 207 140 331 179 14 4 39 14 55 23 77 40 262 90 369 101 72 7 408 -5 505 -18z m2350 -35 c0 -5 56 -66 125 -135 139 -142 239 -214 355 -256 41 -15 102 -38 135 -50 33 -12 116 -29 184 -38 106 -13 142 -13 250 -3 69 7 144 17 165 21 60 13 136 1 136 -20 0 -20 -25 -29 -115 -40 -33 -4 -114 -17 -180 -29 -101 -18 -140 -21 -250 -15 -71 4 -148 12 -170 20 -22 7 -76 22 -120 34 -99 25 -163 53 -240 104 -113 74 -188 150 -242 241 -27 46 -62 122 -68 148 -6 23 -4 27 14 27 12 0 21 -4 21 -9z m-159 -42 c12 -24 15 -27 130 -163 103 -120 161 -167 292 -232 29 -15 65 -36 82 -48 76 -54 301 -132 410 -142 44 -4 172 -7 285 -8 176 -1 205 -3 208 -16 2 -13 -17 -18 -100 -28 -57 -7 -157 -20 -223 -29 -232 -33 -338 -22 -595 65 -62 20 -150 74 -203 125 -25 23 -69 65 -99 94 -60 56 -151 179 -192 261 -34 68 -58 140 -51 152 8 14 42 -5 56 -31z m-2293 -61 c18 -5 56 -13 85 -18 29 -4 66 -12 82 -18 93 -31 198 -63 255 -76 36 -9 91 -25 122 -36 32 -11 64 -20 71 -20 8 0 31 -11 51 -25 20 -14 42 -25 47 -25 6 0 32 -11 58 -24 26 -12 65 -29 86 -36 22 -7 72 -32 110 -55 39 -23 95 -55 125 -70 30 -15 69 -40 85 -55 17 -15 55 -44 85 -65 125 -85 156 -153 46 -101 -30 14 -59 26 -65 26 -9 0 -113 44 -241 103 -30 14 -89 40 -130 58 -41 18 -82 39 -91 46 -8 7 -21 13 -27 13 -6 0 -39 13 -74 29 -35 16 -101 41 -148 56 -47 14 -94 31 -104 37 -20 10 -132 41 -291 79 -114 28 -368 35 -512 15 -182 -26 -264 -47 -397 -103 -58 -24 -184 -53 -232 -53 -72 0 28 72 261 190 88 44 169 80 181 80 12 0 44 7 70 15 131 39 411 59 492 33z m2199 -80 c67 -69 106 -113 197 -225 21 -27 79 -92 130 -147 50 -54 93 -103 94 -107 2 -5 -7 -9 -20 -9 -52 0 -269 189 -355 308 -66 92 -145 231 -138 243 11 16 20 10 92 -63z m-447 -120 c60 -161 101 -262 111 -273 14 -14 11 -45 -5 -45 -31 0 -171 157 -187 209 -16 53 -4 148 19 154 27 6 48 -10 62 -45z m123 8 c36 -40 61 -80 118 -191 23 -44 50 -92 60 -107 40 -56 16 -63 -54 -17 -26 17 -79 69 -117 116 l-70 85 0 68 c0 93 13 102 63 46z m121 18 c9 -4 35 -38 58 -78 69 -119 138 -214 204 -284 59 -62 77 -92 55 -92 -17 0 -137 84 -184 129 -94 89 -184 263 -164 316 7 17 9 17 31 9z m-1854 -43 c162 -35 396 -110 486 -157 36 -19 74 -34 84 -34 55 0 407 -185 477 -251 62 -58 53 -105 -14 -77 -21 9 -67 25 -103 36 -94 30 -167 60 -332 136 -177 82 -289 130 -333 143 -60 18 -78 25 -130 48 -64 29 -179 41 -376 40 -129 -1 -209 -7 -269 -19 -47 -9 -110 -21 -141 -26 -30 -5 -83 -19 -117 -30 -34 -11 -96 -25 -137 -30 -41 -5 -86 -12 -100 -16 -42 -11 -31 27 18 57 189 114 218 128 359 160 51 12 116 27 143 35 74 20 360 11 485 -15z m2056 -63 c38 -40 104 -111 146 -158 42 -47 103 -105 137 -129 59 -43 77 -71 47 -71 -25 0 -208 111 -269 163 -88 75 -178 232 -150 260 12 13 19 8 89 -65z m-2061 -93 c50 -9 99 -19 110 -24 48 -21 185 -71 193 -71 32 0 226 -90 293 -136 44 -30 84 -54 89 -54 5 0 33 -28 61 -62 38 -46 48 -64 37 -66 -24 -5 -181 53 -251 92 -113 63 -298 111 -542 141 -22 3 -76 10 -120 16 -51 8 -131 10 -225 5 -145 -7 -205 -15 -375 -54 -49 -11 -116 -24 -147 -27 -49 -6 -58 -5 -58 8 0 42 148 133 275 171 240 71 472 92 660 61z m-60 -200 c33 -4 66 -12 72 -17 7 -6 49 -11 93 -13 44 -1 85 -7 92 -12 7 -5 49 -22 93 -37 44 -15 145 -59 224 -98 122 -59 153 -80 207 -134 71 -70 85 -111 37 -101 -64 13 -110 25 -133 35 -14 6 -49 18 -79 27 -30 9 -110 43 -177 76 -131 63 -145 67 -379 99 -235 32 -368 27 -569 -21 -87 -21 -196 -25 -196 -8 0 20 56 81 92 100 45 23 123 52 203 75 61 18 290 44 335 38 14 -1 52 -6 85 -9z m1991 -118 c21 -19 26 -29 21 -50 -9 -32 -54 -87 -73 -87 -8 0 -14 -4 -14 -9 0 -4 71 -8 158 -8 l157 1 0 -48 c1 -40 6 -53 29 -72 15 -14 40 -24 57 -24 22 0 29 -5 29 -19 0 -26 -31 -34 -95 -26 -41 5 -60 14 -90 42 -37 35 -37 35 -104 28 -36 -4 -68 -9 -71 -12 -3 -2 5 -12 17 -21 25 -20 53 -73 53 -101 0 -26 80 -111 104 -111 9 0 26 -5 37 -11 20 -10 20 -11 3 -30 -22 -25 -33 -24 -98 8 -31 15 -58 24 -62 21 -10 -11 21 -98 53 -150 14 -22 15 -29 4 -42 -26 -32 -101 -13 -101 25 0 12 -9 34 -21 50 -11 16 -24 54 -28 84 -5 34 -17 66 -35 89 -37 48 -56 47 -56 -3 0 -22 -9 -55 -19 -73 -10 -18 -22 -44 -26 -56 l-7 -24 21 21 c25 25 33 26 71 6 18 -9 30 -24 30 -35 0 -11 7 -20 15 -20 21 0 37 -34 23 -48 -22 -22 -72 -13 -108 17 -27 22 -42 28 -63 24 -20 -4 -34 0 -52 17 -22 21 -25 21 -40 6 -9 -9 -17 -16 -18 -16 -25 2 -83 32 -85 44 -5 23 45 40 85 28 l31 -10 7 84 c5 61 4 88 -5 99 -20 24 -89 38 -155 30 -127 -13 -172 -40 -103 -60 24 -7 35 -18 41 -40 5 -16 16 -45 25 -63 16 -33 15 -34 -14 -57 -29 -23 -29 -23 -60 -4 -38 23 -122 26 -150 4 -18 -15 -18 -16 9 -36 16 -12 39 -45 52 -74 12 -29 28 -56 34 -59 16 -10 13 -36 -4 -36 -8 0 -29 9 -47 20 -18 11 -41 20 -50 20 -10 0 -42 22 -72 49 -72 65 -121 73 -233 39 -40 -12 -42 -25 -5 -34 38 -9 52 -23 52 -50 0 -14 5 -33 12 -43 9 -15 9 -23 -1 -35 -18 -22 -34 -20 -77 9 -28 19 -50 25 -90 25 -30 0 -54 -2 -54 -5 0 -3 7 -17 16 -30 26 -40 12 -58 -39 -50 -47 7 -117 34 -117 45 0 4 -17 16 -37 26 -28 13 -59 17 -119 16 -67 -2 -96 4 -180 32 -87 29 -99 35 -96 54 3 20 -1 22 -48 22 -58 0 -124 24 -118 42 3 7 33 18 69 24 172 29 380 97 544 177 50 24 101 48 115 52 14 4 102 45 195 91 152 74 210 106 295 164 51 34 310 163 316 157 4 -3 3 -18 0 -33 -8 -30 -91 -114 -113 -114 -7 0 -13 -5 -13 -10 0 -15 125 -3 175 17 102 39 216 103 244 137 18 22 35 20 67 -7z m344 -12 c245 -39 575 -65 823 -65 173 0 207 -2 207 -14 0 -16 -10 -20 -90 -35 -291 -54 -760 -65 -930 -21 -106 26 -234 77 -254 99 -43 48 67 64 244 36z m-2283 -90 c147 -6 216 -21 312 -67 183 -87 310 -222 164 -175 -26 9 -97 32 -158 52 -221 73 -412 86 -655 46 -180 -31 -223 -32 -228 -9 -4 23 78 105 126 126 35 15 245 41 287 36 11 -2 79 -5 152 -9z m2842 -125 c51 -5 135 -19 185 -31 189 -46 146 -60 -274 -89 -152 -11 -171 -10 -240 7 -80 21 -103 45 -58 62 82 31 200 58 263 60 17 0 72 -4 124 -9z m-2869 -40 c134 -17 262 -74 353 -158 45 -43 31 -55 -48 -41 -28 5 -86 14 -130 19 -44 6 -100 15 -125 20 -80 18 -239 20 -307 3 -68 -17 -107 -12 -117 13 -16 43 75 109 186 134 103 23 88 22 188 10z m2794 -131 c115 -10 181 -30 174 -51 -3 -7 -22 -16 -44 -20 -79 -15 -362 -38 -459 -37 -125 1 -318 38 -323 62 -2 9 5 20 15 25 15 8 111 24 213 35 47 5 315 -4 424 -14z m-2807 -63 c61 -16 158 -70 167 -92 9 -24 -17 -26 -84 -9 -38 10 -93 15 -145 14 -65 -2 -89 1 -110 15 l-27 18 23 24 c18 19 69 39 114 43 6 0 33 -5 62 -13z m2581 -108 c73 -15 105 -26 112 -38 20 -37 -8 -42 -212 -37 -157 4 -199 8 -226 22 -42 22 -37 35 19 52 111 34 140 35 307 1z m-728 -179 c202 -33 309 -54 316 -62 10 -9 -48 -34 -124 -52 -112 -27 -158 -19 -412 73 -123 45 -144 57 -133 75 8 14 152 0 353 -34z m567 15 c2 -6 -14 -19 -36 -29 -33 -14 -53 -16 -115 -10 -42 4 -78 11 -81 15 -3 5 5 16 17 25 18 12 44 15 117 13 57 -2 96 -7 98 -14z m-807 -124 c101 -12 160 -26 160 -40 0 -13 -24 -19 -104 -26 -63 -6 -87 -3 -143 15 -87 28 -98 35 -89 56 5 14 14 16 44 12 20 -4 80 -11 132 -17z m-242 -49 c3 -16 -1 -22 -10 -19 -7 3 -15 15 -16 27 -3 16 1 22 10 19 7 -3 15 -15 16 -27z"/>
<path d="M4860 4598 c-14 -6 -43 -17 -65 -26 -50 -20 -48 -19 -40 -32 5 -7 11 -8 19 -1 6 5 43 18 81 29 38 10 71 24 73 30 5 15 -34 15 -68 0z"/>
<path d="M4686 4453 c-37 -10 -96 -48 -143 -94 -27 -25 -86 -70 -133 -99 -47 -29 -94 -61 -105 -71 -11 -9 -29 -19 -40 -23 -25 -7 -114 -85 -99 -86 6 0 27 11 47 25 20 13 76 45 125 70 48 25 115 67 148 94 89 72 194 141 215 141 25 0 15 -21 -21 -49 -42 -31 -39 -45 9 -37 50 8 187 -12 201 -30 9 -10 5 -17 -15 -30 -22 -15 -32 -16 -59 -6 -18 7 -44 12 -57 12 -24 0 -129 -57 -159 -86 -27 -26 19 -16 72 16 26 17 57 30 68 30 21 0 60 -33 60 -50 0 -17 22 -11 47 12 13 12 42 24 66 27 40 6 42 8 42 41 0 24 5 35 15 35 19 0 23 6 15 27 -10 25 -60 41 -105 34 -75 -12 -129 21 -75 46 71 32 -28 74 -119 51z"/>
<path d="M5100 4350 c-26 -16 2 -28 49 -21 60 8 67 31 9 31 -23 0 -50 -5 -58 -10z"/>
<path d="M4143 4223 c-33 -38 -113 -124 -177 -192 -73 -78 -113 -128 -107 -134 15 -15 61 27 166 147 52 60 113 124 135 143 35 30 70 79 70 98 0 20 -35 -5 -87 -62z"/>
<path d="M5206 4211 c5 -5 32 -12 59 -16 46 -6 49 -5 31 9 -21 17 -107 23 -90 7z"/>
<path d="M4420 4120 c0 -5 -7 -10 -15 -10 -8 0 -15 -4 -15 -9 0 -4 16 -3 35 3 38 12 46 26 15 26 -11 0 -20 -4 -20 -10z"/>
<path d="M3979 3890 c-45 -44 -85 -80 -89 -80 -12 0 -63 -51 -57 -57 7 -6 97 57 118 83 7 9 37 31 65 49 52 33 80 66 67 79 -13 12 -23 5 -104 -74z"/>
<path d="M4210 3891 c-8 -5 -26 -14 -40 -20 -36 -17 -74 -50 -66 -58 3 -3 14 1 23 9 10 8 37 26 61 38 23 13 42 27 42 32 0 9 0 9 -20 -1z"/>
<path d="M6310 3240 c-12 -8 -12 -10 3 -16 21 -8 67 3 67 16 0 13 -50 13 -70 0z"/>
<path d="M6020 3170 c-14 -11 -20 -20 -14 -20 14 0 50 27 44 33 -3 3 -16 -3 -30 -13z"/>
<path d="M4830 2925 c0 -11 30 -37 39 -33 5 2 -2 11 -15 21 -13 10 -24 15 -24 12z"/>
<path d="M5570 2919 c0 -5 5 -7 10 -4 6 3 10 8 10 11 0 2 -4 4 -10 4 -5 0 -10 -5 -10 -11z"/>
<path d="M5497 2888 c-21 -11 -36 -22 -33 -25 7 -7 96 30 96 40 0 11 -22 6 -63 -15z"/>
<path d="M4900 2875 c0 -8 7 -15 16 -15 9 0 28 -6 42 -14 43 -22 96 -36 133 -35 27 0 30 2 14 9 -11 4 -45 13 -75 20 -30 7 -72 21 -92 32 -32 16 -38 16 -38 3z"/>
<path d="M5420 2852 c-14 -1 -34 -7 -45 -11 -11 -5 -36 -13 -55 -18 -30 -8 -32 -10 -14 -15 12 -3 39 1 60 8 21 8 47 14 56 14 9 0 20 5 23 11 9 14 5 15 -25 11z"/>
<path d="M5184 2809 c-5 -8 66 -18 84 -11 6 2 12 8 12 12 0 10 -90 8 -96 -1z"/>
<path d="M5025 1620 c-3 -5 3 -10 14 -10 12 0 21 5 21 10 0 6 -6 10 -14 10 -8 0 -18 -4 -21 -10z"/>
<path d="M4888 1363 c6 -2 18 -2 25 0 6 3 1 5 -13 5 -14 0 -19 -2 -12 -5z"/>
<path d="M4445 1330 c-3 -5 -2 -10 4 -10 5 0 13 5 16 10 3 6 2 10 -4 10 -5 0 -13 -4 -16 -10z"/>
<path d="M4200 1250 c0 -5 -9 -10 -20 -10 -11 0 -20 -4 -20 -10 0 -13 8 -12 55 10 38 17 38 19 13 19 -16 1 -28 -3 -28 -9z"/>
<path d="M4013 1193 c9 -2 23 -2 30 0 6 3 -1 5 -18 5 -16 0 -22 -2 -12 -5z"/>
<path d="M9715 6556 c-16 -7 -48 -16 -69 -20 -22 -4 -51 -16 -64 -27 -14 -10 -35 -19 -47 -19 -12 0 -34 -9 -48 -20 -14 -11 -32 -20 -41 -20 -8 0 -29 -13 -46 -30 -17 -16 -38 -30 -46 -30 -9 0 -46 -18 -84 -40 -38 -22 -73 -40 -79 -40 -5 0 -16 -8 -23 -18 -15 -21 -101 -72 -120 -72 -8 0 -24 -11 -36 -25 -12 -14 -28 -25 -34 -25 -12 0 -33 -14 -151 -97 -25 -18 -50 -33 -56 -33 -6 0 -36 -20 -65 -44 -30 -24 -64 -47 -76 -51 -12 -4 -42 -21 -67 -38 -25 -18 -57 -40 -71 -49 -53 -34 -66 -43 -96 -69 -17 -14 -53 -38 -79 -54 -52 -30 -75 -68 -56 -91 17 -20 114 -18 174 5 55 20 96 35 165 59 25 8 53 21 62 29 9 8 36 17 60 20 24 3 54 14 67 24 13 11 36 19 51 19 15 0 38 8 51 19 13 10 35 21 49 25 34 10 117 44 162 67 20 10 46 19 56 19 11 0 31 9 45 20 14 11 46 24 72 29 25 5 53 16 63 24 9 8 31 18 47 22 33 7 61 20 205 89 52 25 101 46 108 46 6 0 21 9 32 20 11 11 31 20 45 20 15 0 31 9 40 24 9 13 27 27 41 30 13 4 24 10 24 15 0 5 13 14 30 21 29 12 90 103 90 135 0 9 -12 33 -26 54 -21 32 -38 43 -97 65 -80 29 -117 32 -162 12z"/>
<path d="M8450 6534 c-19 -7 -44 -13 -56 -13 -11 -1 -29 -10 -38 -20 -10 -11 -30 -23 -45 -26 -15 -3 -51 -27 -79 -53 -28 -26 -70 -63 -93 -82 -24 -19 -56 -46 -71 -60 -15 -14 -47 -41 -70 -60 -22 -19 -61 -56 -86 -83 -25 -26 -60 -57 -79 -68 -36 -22 -43 -43 -17 -53 31 -12 110 -6 133 10 12 9 57 34 99 57 128 67 138 73 167 95 15 12 33 22 40 22 17 0 187 88 195 100 6 9 61 47 125 85 12 7 19 28 22 62 6 56 4 58 -67 84 -38 13 -51 14 -80 3z"/>
<path d="M1227 5588 c-26 -26 -46 -100 -28 -106 5 -2 26 -17 47 -33 20 -16 46 -29 58 -29 11 0 45 -11 74 -25 30 -14 60 -25 67 -25 6 0 33 -11 59 -25 26 -14 59 -25 72 -25 14 0 40 -10 56 -22 17 -11 50 -25 75 -29 24 -5 56 -18 70 -29 15 -12 41 -20 63 -20 20 0 58 -11 85 -25 63 -34 155 -44 175 -20 13 16 13 19 -4 29 -10 6 -32 23 -48 39 -16 15 -33 27 -39 27 -5 0 -23 9 -39 20 -17 11 -43 29 -59 40 -16 10 -40 22 -54 26 -14 3 -33 17 -42 30 -8 13 -24 24 -34 24 -10 0 -30 11 -45 25 -15 14 -38 25 -52 25 -13 0 -33 9 -43 19 -11 11 -64 43 -118 72 -92 49 -103 53 -185 57 -81 4 -88 3 -111 -20z"/>
<path d="M8835 5411 c-16 -4 -59 -21 -95 -39 -36 -17 -77 -33 -92 -37 -14 -4 -34 -15 -44 -26 -9 -10 -29 -19 -44 -19 -15 0 -35 -9 -44 -19 -10 -10 -32 -22 -51 -25 -18 -4 -35 -13 -38 -20 -3 -7 -36 -28 -74 -46 -37 -18 -79 -41 -92 -51 -13 -11 -31 -19 -41 -19 -9 0 -25 -10 -36 -21 -10 -12 -29 -25 -41 -30 -31 -11 -29 -37 3 -45 40 -10 122 1 143 20 12 11 43 20 83 23 39 4 72 13 87 24 14 12 40 19 65 19 24 0 53 8 71 20 17 11 41 20 55 20 14 0 44 9 68 20 23 10 58 22 77 26 19 3 52 15 72 25 21 11 45 19 54 19 20 0 51 13 94 38 42 26 45 70 8 112 -26 29 -35 32 -93 36 -36 2 -78 0 -95 -5z"/>
<path d="M448 5220 c-38 -23 -48 -36 -48 -57 0 -15 -5 -40 -11 -57 -8 -23 -7 -41 3 -71 11 -33 22 -44 66 -67 29 -15 88 -34 130 -44 42 -9 109 -25 147 -35 39 -10 111 -23 160 -28 50 -6 115 -18 145 -26 30 -9 123 -20 205 -26 83 -5 186 -17 230 -26 189 -38 246 -41 272 -15 10 11 26 22 36 25 9 4 17 15 17 26 0 20 -62 81 -82 81 -6 0 -19 7 -29 16 -10 9 -40 20 -66 25 -26 5 -56 18 -67 28 -12 10 -41 21 -66 25 -24 4 -58 15 -75 25 -16 10 -50 21 -75 25 -24 4 -58 15 -75 25 -16 10 -48 22 -70 26 -21 3 -55 15 -75 25 -19 9 -51 21 -70 25 -19 4 -54 16 -77 26 -24 11 -64 22 -90 25 -27 4 -64 16 -83 27 -30 18 -56 21 -170 24 l-135 4 -47 -31z"/>
<path d="M9450 5010 c-30 -11 -83 -25 -116 -30 -34 -6 -75 -17 -90 -25 -16 -8 -43 -15 -59 -15 -17 0 -46 -8 -65 -19 -19 -10 -57 -21 -85 -25 -27 -4 -58 -15 -67 -23 -9 -8 -46 -18 -82 -23 -35 -4 -75 -15 -88 -24 -12 -9 -40 -16 -62 -16 -21 0 -53 -9 -70 -19 -17 -11 -49 -23 -71 -27 -71 -13 -185 -79 -185 -108 0 -6 16 -23 34 -38 32 -25 43 -28 113 -28 43 0 96 5 118 10 22 5 123 12 225 15 102 4 226 12 275 20 50 7 134 16 187 20 53 3 111 10 129 15 18 5 66 12 108 16 49 4 101 17 148 37 68 28 74 32 84 69 6 23 8 67 4 103 -7 62 -8 64 -54 93 -44 29 -56 31 -162 37 -100 5 -121 3 -169 -15z"/>
<path d="M710 4533 c-33 -6 -50 -29 -50 -67 0 -44 11 -56 71 -78 118 -43 149 -43 771 -20 197 8 218 14 179 56 -29 31 -85 43 -231 50 -69 4 -145 14 -189 26 -88 25 -468 47 -551 33z"/>
<path d="M8998 4319 c-26 -4 -53 -11 -60 -15 -7 -5 -91 -11 -186 -15 -165 -6 -174 -8 -213 -34 -55 -36 -42 -46 73 -56 51 -4 134 -12 183 -18 50 -6 128 -15 175 -21 47 -5 155 -13 240 -16 139 -6 163 -4 229 15 41 11 78 26 83 33 14 23 9 105 -7 118 -18 15 -438 22 -517 9z"/>
</g>
</svg>