<svg version="1.1" id="Vrstva_1" xmlns="http://www.w3.org/2000/svg" xmlns:xlink="http://www.w3.org/1999/xlink" x="0px" y="0px"
	 width="722.808px" height="186.479px" viewBox="46.67 45.792 722.808 186.479"
	 enable-background="new 46.67 45.792 722.808 186.479" xml:space="preserve">
<g id="Layer_x0020_1">
	<path fill="#FEFEFE" d="M477.95,145.512c0,17.496,0,34.992,0,52.488c0,1.368,0,2.664,0,4.031c-7.776,0-15.553,0-23.328,0
		c0-1.367,0-2.663,0-4.031c0-17.496,0-34.992,0-52.488c0-3.168,0-6.335-0.072-9.432c-0.072-1.944-0.144-3.888-0.288-5.832
		c-0.072-0.72-0.144-1.512-0.288-2.232c-0.071-0.576-0.216-1.08-0.359-1.656c-0.145-0.432-0.217-0.864-0.433-1.224
		c-0.216-0.648-0.576-1.296-0.936-1.872c-1.152-1.944-2.809-3.528-4.68-4.752c-1.297-0.864-2.736-1.656-4.248-2.232
		c-2.089-0.864-4.248-1.512-6.408-2.016c-2.664-0.648-5.4-1.08-8.137-1.44c-2.88-0.36-5.76-0.504-8.712-0.432
		c-2.088,0-4.248,0.072-6.336,0.288c0,28.44,0,56.952,0,85.392c0,1.367,0,2.664,0,4.031c-7.775,0-15.552,0-23.328,0
		c0-36.215,0-72.432,0-108.647c8.641-2.232,16.345-3.744,24.624-4.176c13.032-0.72,27.504,1.224,38.232,6.048
		c10.729,4.752,17.64,12.312,21.096,20.52c3.456,8.136,3.456,16.848,3.456,29.88L477.95,145.512z"/>
	<path fill="#FEFEFE" d="M728.582,198c0-17.496,0-34.992,0-52.488c0-3.168,0-6.335,0.072-9.432c0.071-1.944,0.144-3.888,0.287-5.832
		c0.072-0.72,0.145-1.512,0.288-2.232c0.072-0.576,0.217-1.08,0.36-1.656c0.145-0.432,0.216-0.864,0.432-1.224
		c0.288-0.648,0.576-1.296,0.937-1.872c1.151-1.944,2.808-3.528,4.68-4.752c1.296-0.864,2.736-1.656,4.248-2.232
		c2.088-0.864,4.248-1.512,6.408-2.016c2.664-0.648,5.4-1.08,8.136-1.44c2.809-0.288,5.616-0.432,8.496-0.432
		c2.16,0,4.393,0,6.552,0c0-7.776,0-15.552,0-23.328c-2.159,0-4.392,0-6.552,0c-11.592,0-23.76,2.016-33.048,6.12
		c-10.728,4.752-17.64,12.312-21.096,20.52c-3.456,8.136-3.456,16.848-3.456,29.88c0,17.496,0,34.992,0,52.488
		c0,1.367,0,2.664,0,4.031c7.775,0,15.552,0,23.328,0c0-1.367,0-2.664,0-4.031L728.582,198z"/>
	<path fill="#FEFEFE" d="M279.735,145.439c0-17.496,0-34.992,0-52.487c0-1.368,0-2.664,0-4.032c7.775,0,15.552,0,23.327,0
		c0,1.368,0,2.664,0,4.032c0,17.496,0,34.992,0,52.487c0,3.168,0,6.336,0.072,9.433c0.072,1.944,0.145,3.888,0.288,5.832
		c0.072,0.72,0.145,1.512,0.288,2.231c0.072,0.576,0.216,1.08,0.36,1.656c0.144,0.432,0.216,0.864,0.432,1.225
		c0.288,0.647,0.576,1.295,0.936,1.871c1.152,1.944,2.809,3.528,4.681,4.752c1.296,0.937,2.735,1.656,4.248,2.232
		c2.088,0.864,4.248,1.512,6.407,2.016c2.664,0.648,5.4,1.08,8.137,1.44c2.88,0.36,5.76,0.504,8.712,0.433
		c2.088,0,4.248-0.072,6.336-0.289c0-28.439,0-56.952,0-85.392c0-1.368,0-2.664,0-4.032c7.776,0,15.552,0,23.328,0
		c0,36.216,0,72.431,0,108.648c-8.641,2.232-16.345,3.744-24.624,4.176c-13.032,0.721-27.504-1.225-38.232-6.048
		c-10.728-4.752-17.64-12.312-21.096-20.521c-3.456-8.135-3.456-16.848-3.456-29.879L279.735,145.439z"/>
	<polygon fill="#FEFEFE" stroke="none" points="501.279,201.96 524.606,201.96 524.606,88.992 501.279,88.992 	"/>
	<path fill="#FEFEFE" d="M647.151,133.776c0.071-1.224,0.144-2.376,0.216-3.6c0.071-0.72,0.144-1.512,0.288-2.232
		c0.071-0.576,0.216-1.08,0.359-1.656c0.145-0.432,0.216-0.864,0.433-1.224c0.288-0.648,0.575-1.296,0.936-1.872
		c1.152-1.944,2.808-3.528,4.68-4.752c1.296-0.864,2.736-1.656,4.248-2.232c2.088-0.864,4.248-1.512,6.408-2.016
		c2.664-0.648,5.4-1.08,8.136-1.44c2.809-0.288,5.616-0.432,8.496-0.432c2.16,0,4.393,0,6.553,0c0-7.776,0-15.552,0-23.328
		c-2.16,0-4.393,0-6.553,0c-11.592,0-23.76,2.016-33.048,6.12c-10.728,4.752-17.64,12.312-21.096,20.52
		c-3.456,8.136-3.456,16.848-3.456,29.88c0,13.032,0,21.744,3.456,29.881c3.456,8.135,10.368,15.695,21.096,20.52
		c9.288,4.104,21.456,6.119,33.048,6.119c2.16,0,4.393,0,6.553,0c0-7.775,0-15.551,0-23.327c-2.16,0-4.393,0-6.553,0
		c-2.808,0-5.688-0.144-8.496-0.433c-2.735-0.287-5.399-0.791-8.136-1.439c-2.16-0.504-4.32-1.152-6.408-2.016
		c-1.439-0.648-2.88-1.369-4.248-2.232c-1.872-1.296-3.527-2.88-4.68-4.752c-0.36-0.576-0.647-1.225-0.936-1.872
		c-0.145-0.433-0.288-0.792-0.433-1.224c-0.144-0.504-0.288-1.08-0.359-1.656c-0.145-0.721-0.217-1.512-0.288-2.232
		c-0.145-1.224-0.216-2.447-0.216-3.672c9.647,0,19.367,0,23.184,0c0-7.775,0-15.552,0-23.328c-3.816,0-13.536,0-23.184,0V133.776z"
		/>
	<path fill="#FEFEFE" d="M605.462,112.32c2.16,0,4.392,0,6.552,0c0-7.776,0-15.552,0-23.328c-2.16,0-4.392,0-6.552,0
		c-11.592,0-23.76,2.016-33.048,6.12c-10.729,4.752-17.641,12.312-21.096,20.52c-3.456,8.136-3.456,16.848-3.456,29.88
		c0,17.496,0,34.992,0,52.488c0,1.368,0,2.664,0,4.031c7.775,0,15.552,0,23.327,0c0-1.367,0-2.663,0-4.031
		c0-13.607,0-27.216,0-40.896c9.721,0,19.44,0,23.328,0c0-7.775,0-15.551,0-23.328c-3.815,0-13.464,0-23.184,0
		c0.072-1.224,0.144-2.376,0.216-3.6c0.072-0.72,0.145-1.512,0.288-2.232c0.072-0.576,0.216-1.08,0.36-1.656
		c0.144-0.432,0.216-0.864,0.432-1.224c0.288-0.648,0.576-1.296,0.937-1.872c1.151-1.944,2.808-3.528,4.68-4.752
		c1.296-0.864,2.735-1.656,4.248-2.232c2.088-0.864,4.248-1.512,6.408-2.016c2.664-0.648,5.399-1.08,8.136-1.44
		c2.808-0.288,5.616-0.432,8.496-0.432H605.462z"/>
	<path fill="#FEFEFE" class="eye" d="M170.078,140.111c-12.312-3.815-25.344,3.097-29.16,15.408c-3.815,12.313,3.096,25.344,15.408,29.16
		c12.312,3.816,25.344-3.096,29.16-15.408c1.368-4.463,1.368-9.215,0-13.752c-1.152,2.592-3.24,4.681-5.832,5.832
		c-5.904,2.664-12.744,0.072-15.408-5.832S164.174,142.775,170.078,140.111z"/>
	<path fill="#FEFEFE" class="eye" d="M139.91,220.68c-45.072,0-81.576-36.504-81.576-81.576c0-45.072,36.504-81.576,81.576-81.576
		s81.576,36.504,81.576,81.576C221.487,184.176,184.983,220.68,139.91,220.68z M139.91,45.792c-51.48,0-93.24,41.76-93.24,93.24
		c0,51.48,41.76,93.24,93.24,93.24c51.479,0,93.24-41.76,93.24-93.24C233.151,87.552,191.39,45.792,139.91,45.792z"/>
</g>
</svg>
